<?xml version="1.0" encoding="UTF-8" standalone="no"?>
<!DOCTYPE svg PUBLIC "-//W3C//DTD SVG 1.0//EN"
 "http://www.w3.org/TR/2001/REC-SVG-20010904/DTD/svg10.dtd" [
 <!ATTLIST svg xmlns:xlink CDATA #FIXED "http://www.w3.org/1999/xlink">
]>
<!-- Generated by Graphviz version 2.20.2 (Mon Mar 30 10:09:11 UTC 2009)
     For user: (daob) Daniel Oberski,,, -->
<!-- Title: Linguistic characteristics Pages: 1 -->
<svg width="529pt" height="1276pt"
 viewBox="0.00 0.00 529.00 1276.00" xmlns="http://www.w3.org/2000/svg" xmlns:xlink="http://www.w3.org/1999/xlink">
<g id="graph0" class="graph" transform="scale(1 1) rotate(0) translate(4 1272)">
<title>Linguistic characteristics</title>
<polygon style="fill:white;stroke:white;" points="-4,4 -4,-1272 525,-1272 525,4 -4,4"/>
<!-- Question text -->
<g id="node1" class="node"><title>Question text</title>
<polygon style="fill:none;stroke:black;" points="410,-1268 300,-1268 300,-1232 410,-1232 410,-1268"/>
<text text-anchor="middle" x="355" y="-1245.9" style="font-family:Times New Roman;font-size:14.00;">Question text</text>
</g>
<!-- Social Desirability -->
<g id="node4" class="node"><title>Social Desirability</title>
<a xlink:href="/admin/sqp/characteristic/16/" xlink:title="Social Desirability">
<polygon style="fill:none;stroke:black;" points="424,-1194 286,-1194 286,-1158 424,-1158 424,-1194"/>
<text text-anchor="middle" x="355" y="-1171.9" style="font-family:Times New Roman;font-size:14.00;">Social Desirability</text>
</a>
</g>
<!-- Question text&#45;&gt;Social Desirability -->
<g id="edge3" class="edge"><title>Question text&#45;&gt;Social Desirability</title>
<a xlink:href="/admin/sqp/branch/1/">
<path style="fill:none;stroke:black;" d="M355,-1232C355,-1223 355,-1214 355,-1204"/>
<polygon style="fill:black;stroke:black;" points="358.5,-1204 355,-1194 351.5,-1204 358.5,-1204"/>
</a>
<a xlink:href="/admin/sqp/branch/1/">
</a>
<a xlink:href="/admin/sqp/branch/1/">
</a>
</g>
<!-- END -->
<g id="node3" class="node"><title>END</title>
<polygon style="fill:black;stroke:black;" points="341,-36 287,-36 287,-1.06581e-14 341,-0 341,-36"/>
<text text-anchor="middle" x="314" y="-13.9" style="font-family:Times New Roman;font-size:14.00;fill:white;">END</text>
</g>
<!-- Centrality -->
<g id="node6" class="node"><title>Centrality</title>
<a xlink:href="/admin/sqp/characteristic/17/" xlink:title="Centrality">
<polygon style="fill:none;stroke:black;" points="397,-1104 313,-1104 313,-1068 397,-1068 397,-1104"/>
<text text-anchor="middle" x="355" y="-1081.9" style="font-family:Times New Roman;font-size:14.00;">Centrality</text>
</a>
</g>
<!-- Social Desirability&#45;&gt;Centrality -->
<g id="edge5" class="edge"><title>Social Desirability&#45;&gt;Centrality</title>
<a xlink:href="/admin/sqp/branch/2/" xlink:title="Not present">
<path style="fill:none;stroke:black;" d="M355,-1158C355,-1145 355,-1129 355,-1114"/>
<polygon style="fill:black;stroke:black;" points="358.5,-1114 355,-1104 351.5,-1114 358.5,-1114"/>
</a>
<a xlink:href="/admin/sqp/branch/2/" xlink:title="Not present">
</a>
<a xlink:href="/admin/sqp/branch/2/" xlink:title="Not present">
</a>
<a xlink:href="/admin/sqp/branch/2/" xlink:title="Not present">
<text text-anchor="middle" x="396" y="-1126.9" style="font-family:Times New Roman;font-size:14.00;">Not present</text>
</a>
</g>
<!-- Introduction available? -->
<g id="node8" class="node"><title>Introduction available?</title>
<a xlink:href="/admin/sqp/characteristic/1/" xlink:title="Introduction available?">
<polygon style="fill:none;stroke:black;" points="442,-1014 268,-1014 268,-978 442,-978 442,-1014"/>
<text text-anchor="middle" x="355" y="-991.9" style="font-family:Times New Roman;font-size:14.00;">Introduction available?</text>
</a>
</g>
<!-- Centrality&#45;&gt;Introduction available? -->
<g id="edge7" class="edge"><title>Centrality&#45;&gt;Introduction available?</title>
<a xlink:href="/admin/sqp/branch/5/" xlink:title="Not at all central/salient">
<path style="fill:none;stroke:black;" d="M355,-1068C355,-1055 355,-1039 355,-1024"/>
<polygon style="fill:black;stroke:black;" points="358.5,-1024 355,-1014 351.5,-1024 358.5,-1024"/>
</a>
<a xlink:href="/admin/sqp/branch/5/" xlink:title="Not at all central/salient">
</a>
<a xlink:href="/admin/sqp/branch/5/" xlink:title="Not at all central/salient">
</a>
<a xlink:href="/admin/sqp/branch/5/" xlink:title="Not at all central/salient">
<text text-anchor="middle" x="438" y="-1036.9" style="font-family:Times New Roman;font-size:14.00;">Not at all central/salient</text>
</a>
</g>
<!-- Number of sentences in introduction -->
<g id="node10" class="node"><title>Number of sentences in introduction</title>
<a xlink:href="/admin/sqp/characteristic/4/" xlink:title="Number of sentences in introduction">
<polygon style="fill:none;stroke:black;" points="339,-924 73,-924 73,-888 339,-888 339,-924"/>
<text text-anchor="middle" x="206" y="-901.9" style="font-family:Times New Roman;font-size:14.00;">Number of sentences in introduction</text>
</a>
</g>
<!-- Introduction available?&#45;&gt;Number of sentences in introduction -->
<g id="edge9" class="edge"><title>Introduction available?&#45;&gt;Number of sentences in introduction</title>
<a xlink:href="/admin/sqp/branch/10/" xlink:title="Available">
<path style="fill:none;stroke:black;" d="M324,-978C314,-972 303,-966 294,-960 277,-950 259,-939 244,-930"/>
<polygon style="fill:black;stroke:black;" points="245.262,-926.635 235,-924 241.379,-932.459 245.262,-926.635"/>
</a>
<a xlink:href="/admin/sqp/branch/10/" xlink:title="Available">
</a>
<a xlink:href="/admin/sqp/branch/10/" xlink:title="Available">
</a>
<a xlink:href="/admin/sqp/branch/10/" xlink:title="Available">
<text text-anchor="middle" x="328" y="-946.9" style="font-family:Times New Roman;font-size:14.00;">Available</text>
</a>
</g>
<!-- Number of sentences in the question -->
<g id="node16" class="node"><title>Number of sentences in the question</title>
<a xlink:href="/admin/sqp/characteristic/8/" xlink:title="Number of sentences in the question">
<polygon style="fill:none;stroke:black;" points="449,-702 179,-702 179,-666 449,-666 449,-702"/>
<text text-anchor="middle" x="314" y="-679.9" style="font-family:Times New Roman;font-size:14.00;">Number of sentences in the question</text>
</a>
</g>
<!-- Introduction available?&#45;&gt;Number of sentences in the question -->
<g id="edge35" class="edge"><title>Introduction available?&#45;&gt;Number of sentences in the question</title>
<a xlink:href="/admin/sqp/branch/11/" xlink:title="Not available">
<path style="fill:none;stroke:black;" d="M360,-978C364,-960 370,-931 370,-906 370,-906 370,-906 370,-758 370,-739 359,-722 346,-709"/>
<polygon style="fill:black;stroke:black;" points="348.546,-706.596 339,-702 343.596,-711.546 348.546,-706.596"/>
</a>
<a xlink:href="/admin/sqp/branch/11/" xlink:title="Not available">
</a>
<a xlink:href="/admin/sqp/branch/11/" xlink:title="Not available">
</a>
<a xlink:href="/admin/sqp/branch/11/" xlink:title="Not available">
<text text-anchor="middle" x="415" y="-827.9" style="font-family:Times New Roman;font-size:14.00;">Not available</text>
</a>
</g>
<!-- Number of words in introduction -->
<g id="node12" class="node"><title>Number of words in introduction</title>
<a xlink:href="/admin/sqp/characteristic/3/" xlink:title="Number of words in introduction">
<polygon style="fill:none;stroke:black;" points="298,-850 58,-850 58,-814 298,-814 298,-850"/>
<text text-anchor="middle" x="178" y="-827.9" style="font-family:Times New Roman;font-size:14.00;">Number of words in introduction</text>
</a>
</g>
<!-- Number of sentences in introduction&#45;&gt;Number of words in introduction -->
<g id="edge11" class="edge"><title>Number of sentences in introduction&#45;&gt;Number of words in introduction</title>
<a xlink:href="/admin/sqp/branch/12/">
<path style="fill:none;stroke:black;" d="M199,-888C196,-879 192,-869 188,-860"/>
<polygon style="fill:black;stroke:black;" points="191.226,-858.573 185,-850 184.521,-860.584 191.226,-858.573"/>
</a>
<a xlink:href="/admin/sqp/branch/12/">
</a>
<a xlink:href="/admin/sqp/branch/12/">
</a>
</g>
<!-- Number of subordinated clauses in introduction -->
<g id="node14" class="node"><title>Number of subordinated clauses in introduction</title>
<a xlink:href="/admin/sqp/characteristic/6/" xlink:title="Number of subordinated clauses in introduction">
<polygon style="fill:none;stroke:black;" points="342,-776 1.13687e-13,-776 2.84217e-14,-740 342,-740 342,-776"/>
<text text-anchor="middle" x="171" y="-753.9" style="font-family:Times New Roman;font-size:14.00;">Number of subordinated clauses in introduction</text>
</a>
</g>
<!-- Number of words in introduction&#45;&gt;Number of subordinated clauses in introduction -->
<g id="edge13" class="edge"><title>Number of words in introduction&#45;&gt;Number of subordinated clauses in introduction</title>
<a xlink:href="/admin/sqp/branch/14/">
<path style="fill:none;stroke:black;" d="M176,-814C175,-805 175,-796 174,-786"/>
<polygon style="fill:black;stroke:black;" points="177.478,-785.602 173,-776 170.512,-786.299 177.478,-785.602"/>
</a>
<a xlink:href="/admin/sqp/branch/14/">
</a>
<a xlink:href="/admin/sqp/branch/14/">
</a>
</g>
<!-- Number of subordinated clauses in introduction&#45;&gt;Number of sentences in the question -->
<g id="edge15" class="edge"><title>Number of subordinated clauses in introduction&#45;&gt;Number of sentences in the question</title>
<a xlink:href="/admin/sqp/branch/15/">
<path style="fill:none;stroke:black;" d="M206,-740C225,-730 250,-718 270,-707"/>
<polygon style="fill:black;stroke:black;" points="271.958,-709.916 279,-702 268.559,-703.797 271.958,-709.916"/>
</a>
<a xlink:href="/admin/sqp/branch/15/">
</a>
<a xlink:href="/admin/sqp/branch/15/">
</a>
</g>
<!-- Number of words in question -->
<g id="node18" class="node"><title>Number of words in question</title>
<a xlink:href="/admin/sqp/characteristic/9/" xlink:title="Number of words in question">
<polygon style="fill:none;stroke:black;" points="422,-628 206,-628 206,-592 422,-592 422,-628"/>
<text text-anchor="middle" x="314" y="-605.9" style="font-family:Times New Roman;font-size:14.00;">Number of words in question</text>
</a>
</g>
<!-- Number of sentences in the question&#45;&gt;Number of words in question -->
<g id="edge17" class="edge"><title>Number of sentences in the question&#45;&gt;Number of words in question</title>
<a xlink:href="/admin/sqp/branch/13/">
<path style="fill:none;stroke:black;" d="M314,-666C314,-657 314,-648 314,-638"/>
<polygon style="fill:black;stroke:black;" points="317.5,-638 314,-628 310.5,-638 317.5,-638"/>
</a>
<a xlink:href="/admin/sqp/branch/13/">
</a>
<a xlink:href="/admin/sqp/branch/13/">
</a>
</g>
<!-- Total number of nouns in request for an answer -->
<g id="node20" class="node"><title>Total number of nouns in request for an answer</title>
<a xlink:href="/admin/sqp/characteristic/12/" xlink:title="Total number of nouns in request for an answer">
<polygon style="fill:none;stroke:black;" points="486,-554 142,-554 142,-518 486,-518 486,-554"/>
<text text-anchor="middle" x="314" y="-531.9" style="font-family:Times New Roman;font-size:14.00;">Total number of nouns in request for an answer</text>
</a>
</g>
<!-- Number of words in question&#45;&gt;Total number of nouns in request for an answer -->
<g id="edge19" class="edge"><title>Number of words in question&#45;&gt;Total number of nouns in request for an answer</title>
<a xlink:href="/admin/sqp/branch/16/">
<path style="fill:none;stroke:black;" d="M314,-592C314,-583 314,-574 314,-564"/>
<polygon style="fill:black;stroke:black;" points="317.5,-564 314,-554 310.5,-564 317.5,-564"/>
</a>
<a xlink:href="/admin/sqp/branch/16/">
</a>
<a xlink:href="/admin/sqp/branch/16/">
</a>
</g>
<!-- Total number of abstract nouns in request for an answer -->
<g id="node22" class="node"><title>Total number of abstract nouns in request for an answer</title>
<a xlink:href="/admin/sqp/characteristic/13/" xlink:title="Total number of abstract nouns in request for an answer">
<polygon style="fill:none;stroke:black;" points="517,-480 111,-480 111,-444 517,-444 517,-480"/>
<text text-anchor="middle" x="314" y="-457.9" style="font-family:Times New Roman;font-size:14.00;">Total number of abstract nouns in request for an answer</text>
</a>
</g>
<!-- Total number of nouns in request for an answer&#45;&gt;Total number of abstract nouns in request for an answer -->
<g id="edge21" class="edge"><title>Total number of nouns in request for an answer&#45;&gt;Total number of abstract nouns in request for an answer</title>
<a xlink:href="/admin/sqp/branch/20/">
<path style="fill:none;stroke:black;" d="M314,-518C314,-509 314,-500 314,-490"/>
<polygon style="fill:black;stroke:black;" points="317.5,-490 314,-480 310.5,-490 317.5,-490"/>
</a>
<a xlink:href="/admin/sqp/branch/20/">
</a>
<a xlink:href="/admin/sqp/branch/20/">
</a>
</g>
<!-- Total number of syllables in question -->
<g id="node24" class="node"><title>Total number of syllables in question</title>
<a xlink:href="/admin/sqp/characteristic/10/" xlink:title="Total number of syllables in question">
<polygon style="fill:none;stroke:black;" points="447,-406 181,-406 181,-370 447,-370 447,-406"/>
<text text-anchor="middle" x="314" y="-383.9" style="font-family:Times New Roman;font-size:14.00;">Total number of syllables in question</text>
</a>
</g>
<!-- Total number of abstract nouns in request for an answer&#45;&gt;Total number of syllables in question -->
<g id="edge23" class="edge"><title>Total number of abstract nouns in request for an answer&#45;&gt;Total number of syllables in question</title>
<a xlink:href="/admin/sqp/branch/22/">
<path style="fill:none;stroke:black;" d="M314,-444C314,-435 314,-426 314,-416"/>
<polygon style="fill:black;stroke:black;" points="317.5,-416 314,-406 310.5,-416 317.5,-416"/>
</a>
<a xlink:href="/admin/sqp/branch/22/">
</a>
<a xlink:href="/admin/sqp/branch/22/">
</a>
</g>
<!-- Number of subordinate clauses in question -->
<g id="node26" class="node"><title>Number of subordinate clauses in question</title>
<a xlink:href="/admin/sqp/characteristic/11/" xlink:title="Number of subordinate clauses in question">
<polygon style="fill:none;stroke:black;" points="468,-332 160,-332 160,-296 468,-296 468,-332"/>
<text text-anchor="middle" x="314" y="-309.9" style="font-family:Times New Roman;font-size:14.00;">Number of subordinate clauses in question</text>
</a>
</g>
<!-- Total number of syllables in question&#45;&gt;Number of subordinate clauses in question -->
<g id="edge25" class="edge"><title>Total number of syllables in question&#45;&gt;Number of subordinate clauses in question</title>
<a xlink:href="/admin/sqp/branch/17/">
<path style="fill:none;stroke:black;" d="M314,-370C314,-361 314,-352 314,-342"/>
<polygon style="fill:black;stroke:black;" points="317.5,-342 314,-332 310.5,-342 317.5,-342"/>
</a>
<a xlink:href="/admin/sqp/branch/17/">
</a>
<a xlink:href="/admin/sqp/branch/17/">
</a>
</g>
<!-- Number of syllables in answer categories -->
<g id="node28" class="node"><title>Number of syllables in answer categories</title>
<a xlink:href="/admin/sqp/characteristic/15/" xlink:title="Number of syllables in answer categories">
<polygon style="fill:none;stroke:black;" points="463,-258 165,-258 165,-222 463,-222 463,-258"/>
<text text-anchor="middle" x="314" y="-235.9" style="font-family:Times New Roman;font-size:14.00;">Number of syllables in answer categories</text>
</a>
</g>
<!-- Number of subordinate clauses in question&#45;&gt;Number of syllables in answer categories -->
<g id="edge27" class="edge"><title>Number of subordinate clauses in question&#45;&gt;Number of syllables in answer categories</title>
<a xlink:href="/admin/sqp/branch/19/">
<path style="fill:none;stroke:black;" d="M314,-296C314,-287 314,-278 314,-268"/>
<polygon style="fill:black;stroke:black;" points="317.5,-268 314,-258 310.5,-268 317.5,-268"/>
</a>
<a xlink:href="/admin/sqp/branch/19/">
</a>
<a xlink:href="/admin/sqp/branch/19/">
</a>
</g>
<!-- Total number of nouns in answer categories -->
<g id="node30" class="node"><title>Total number of nouns in answer categories</title>
<a xlink:href="/admin/sqp/characteristic/18/" xlink:title="Total number of nouns in answer categories">
<polygon style="fill:none;stroke:black;" points="473,-184 155,-184 155,-148 473,-148 473,-184"/>
<text text-anchor="middle" x="314" y="-161.9" style="font-family:Times New Roman;font-size:14.00;">Total number of nouns in answer categories</text>
</a>
</g>
<!-- Number of syllables in answer categories&#45;&gt;Total number of nouns in answer categories -->
<g id="edge29" class="edge"><title>Number of syllables in answer categories&#45;&gt;Total number of nouns in answer categories</title>
<a xlink:href="/admin/sqp/branch/18/">
<path style="fill:none;stroke:black;" d="M314,-222C314,-213 314,-204 314,-194"/>
<polygon style="fill:black;stroke:black;" points="317.5,-194 314,-184 310.5,-194 317.5,-194"/>
</a>
<a xlink:href="/admin/sqp/branch/18/">
</a>
<a xlink:href="/admin/sqp/branch/18/">
</a>
</g>
<!-- Total number of abstract nouns in answer categories -->
<g id="node32" class="node"><title>Total number of abstract nouns in answer categories</title>
<a xlink:href="/admin/sqp/characteristic/19/" xlink:title="Total number of abstract nouns in answer categories">
<polygon style="fill:none;stroke:black;" points="503,-110 125,-110 125,-74 503,-74 503,-110"/>
<text text-anchor="middle" x="314" y="-87.9" style="font-family:Times New Roman;font-size:14.00;">Total number of abstract nouns in answer categories</text>
</a>
</g>
<!-- Total number of nouns in answer categories&#45;&gt;Total number of abstract nouns in answer categories -->
<g id="edge31" class="edge"><title>Total number of nouns in answer categories&#45;&gt;Total number of abstract nouns in answer categories</title>
<a xlink:href="/admin/sqp/branch/21/">
<path style="fill:none;stroke:black;" d="M314,-148C314,-139 314,-130 314,-120"/>
<polygon style="fill:black;stroke:black;" points="317.5,-120 314,-110 310.5,-120 317.5,-120"/>
</a>
<a xlink:href="/admin/sqp/branch/21/">
</a>
<a xlink:href="/admin/sqp/branch/21/">
</a>
</g>
<!-- Total number of abstract nouns in answer categories&#45;&gt;END -->
<g id="edge33" class="edge"><title>Total number of abstract nouns in answer categories&#45;&gt;END</title>
<a xlink:href="/admin/sqp/branch/add/">
<path style="fill:none;stroke:black;" d="M314,-74C314,-65 314,-56 314,-46"/>
<polygon style="fill:black;stroke:black;" points="317.5,-46 314,-36 310.5,-46 317.5,-46"/>
</a>
<a xlink:href="/admin/sqp/branch/add/">
</a>
<a xlink:href="/admin/sqp/branch/add/">
</a>
</g>
</g>
</svg>
